<svg width="45" height="44" viewBox="0 0 45 44" fill="none" xmlns="http://www.w3.org/2000/svg">
<path d="M44.2726 22.1363C44.2726 9.90737 34.3569 0 22.1363 0C9.90737 0 0 9.90737 0 22.1363C0 33.1823 8.09219 42.3412 18.6775 44V28.5364H13.0563V22.1377H18.6775V17.258C18.6775 11.7115 21.9772 8.64837 27.0353 8.64837C29.4579 8.64837 31.9938 9.08002 31.9938 9.08002V14.5269H29.1978C26.4529 14.5269 25.5951 16.2356 25.5951 17.9857V22.1363H31.7337L30.7473 28.535H25.5951V43.9986C36.1721 42.3398 44.2726 33.1809 44.2726 22.1349V22.1363Z" fill="#3BB77E"/>
</svg>
