<svg width="21" height="21" viewBox="0 0 21 21" fill="none" xmlns="http://www.w3.org/2000/svg">
<path fill-rule="evenodd" clip-rule="evenodd" d="M18.052 4.83665C18.2593 4.99423 18.381 5.23967 18.381 5.50009V15.5001C18.381 15.7529 18.2663 15.992 18.0691 16.1501C17.872 16.3083 17.6137 16.3684 17.3669 16.3136L2.36691 12.9802C1.98563 12.8955 1.71436 12.5573 1.71436 12.1668V9.66676C1.71436 9.29242 1.96397 8.96401 2.32465 8.86382L17.3247 4.69716C17.5756 4.62746 17.8446 4.67906 18.052 4.83665ZM3.38102 10.3002V11.4983L16.7144 14.4612V6.59646L3.38102 10.3002Z" fill="#3BB77E"/>
<path fill-rule="evenodd" clip-rule="evenodd" d="M5.10273 12.3632C5.54639 12.4856 5.80684 12.9445 5.68445 13.3882C5.626 13.6 5.60986 13.8213 5.63694 14.0394C5.66402 14.2575 5.7338 14.4682 5.84228 14.6593C5.95077 14.8505 6.09584 15.0184 6.26921 15.1534C6.44258 15.2885 6.64086 15.3881 6.85273 15.4466C7.0646 15.505 7.2859 15.5211 7.50401 15.4941C7.72211 15.467 7.93275 15.3972 8.12389 15.2887C8.31503 15.1802 8.48293 15.0352 8.618 14.8618C8.75308 14.6884 8.85268 14.4901 8.91113 14.2783C9.03352 13.8346 9.4924 13.5742 9.93606 13.6966C10.3797 13.8189 10.6402 14.2778 10.5178 14.7215C10.4011 15.1443 10.2023 15.5401 9.93275 15.8861C9.66316 16.2321 9.32805 16.5217 8.94656 16.7382C8.56508 16.9547 8.14468 17.094 7.70937 17.148C7.27406 17.2021 6.83237 17.1699 6.40951 17.0532C5.98666 16.9366 5.59092 16.7378 5.24489 16.4682C4.89886 16.1986 4.60932 15.8635 4.3928 15.482C4.17628 15.1005 4.03702 14.6801 3.98297 14.2448C3.92892 13.8095 3.96114 13.3678 4.07779 12.9449C4.20018 12.5013 4.65906 12.2408 5.10273 12.3632Z" fill="#3BB77E"/>
</svg>
