<svg width="45" height="45" viewBox="0 0 45 45" fill="none" xmlns="http://www.w3.org/2000/svg">
<path d="M37.755 37.4976H31.2471V27.2855C31.2471 24.8504 31.1962 21.7209 27.844 21.7209C24.4505 21.7209 23.9335 24.3623 23.9335 27.1054V37.4963H17.4173V16.4986H23.6763V19.3628H23.7602C24.6347 17.7086 26.7618 15.9693 29.9353 15.9693C36.5367 15.9693 37.7618 20.3156 37.7618 25.9669V37.4963L37.755 37.4976ZM10.0556 13.629C7.95596 13.629 6.27296 11.9309 6.27296 9.8395C6.27296 7.755 7.96284 6.05963 10.0556 6.05963C12.1483 6.05963 13.8437 7.755 13.8437 9.8395C13.8437 11.9309 12.1483 13.629 10.0556 13.629ZM13.3198 37.4976H6.78996V16.5H13.3198V37.4976ZM41.022 0H3.51746C1.72584 0 0.272461 1.41762 0.272461 3.17213V40.8293C0.272461 42.5838 1.72584 44.0014 3.51746 44.0014H41.0151C42.804 44.0014 44.2725 42.5838 44.2725 40.8293V3.17213C44.2725 1.41762 42.804 0 41.0151 0L41.022 0Z" fill="#3BB77E"/>
</svg>
