<svg width="55" height="44" viewBox="0 0 55 44" fill="none" xmlns="http://www.w3.org/2000/svg">
<path d="M54.7686 5.24244C52.7775 6.11534 50.646 6.71588 48.3995 6.98824C50.6917 5.61292 52.4443 3.43745 53.2799 0.845829C51.1298 2.09765 48.7514 3.00438 46.2224 3.51696C44.2059 1.3584 41.3233 0 38.1244 0C31.9921 0 27.022 4.9684 27.022 11.0922C27.022 11.9735 27.1286 12.8194 27.313 13.6212C18.0884 13.1898 9.91093 8.75771 4.44181 2.06213C3.48095 3.69289 2.93454 5.58754 2.93454 7.64967C2.93454 11.5083 4.89855 14.8917 7.86741 16.881C6.05226 16.8286 4.34369 16.3262 2.84657 15.499V15.6326C2.84657 21.0138 6.66972 25.5 11.7447 26.5218C10.8194 26.7671 9.83143 26.9092 8.82827 26.9092C8.11609 26.9092 7.43604 26.8398 6.75769 26.7146C8.18544 31.1197 12.2725 34.3271 17.1445 34.4235C13.3568 37.3924 8.55592 39.1619 3.38283 39.1619C2.50148 39.1619 1.62181 39.1196 0.73877 39.013C5.67333 42.1595 11.4977 44 17.789 44C38.2022 44 49.357 27.0919 49.357 12.4489C49.357 11.982 49.357 11.5067 49.3215 11.0296C51.4986 9.47835 53.3831 7.51265 54.8718 5.28474L54.7686 5.24244Z" fill="#3BB77E"/>
</svg>
