<svg width="14" height="18" viewBox="0 0 14 18" fill="none" xmlns="http://www.w3.org/2000/svg">
<path d="M12.435 12.2871L9.70414 10.5121L10.7337 8.62455C10.9737 8.18376 11.0996 7.68993 11.1 7.18804V4.2C11.1 3.08609 10.6575 2.0178 9.86985 1.23015C9.0822 0.442499 8.01392 0 6.90001 0C5.7861 0 4.71781 0.442499 3.93016 1.23015C3.1425 2.0178 2.70001 3.08609 2.70001 4.2V7.18804C2.70038 7.68994 2.8263 8.18378 3.06631 8.62459L4.09587 10.5121L1.36501 12.2871C0.945307 12.5588 0.600447 12.9314 0.361982 13.3708C0.123517 13.8103 -0.000938024 14.3025 5.32307e-06 14.8025V18H13.8V14.8025C13.8009 14.3025 13.6765 13.8103 13.438 13.3708C13.1996 12.9314 12.8547 12.5588 12.435 12.2871ZM12.6 16.8H1.20001V14.8025C1.19944 14.5025 1.27412 14.2071 1.41721 13.9435C1.56029 13.6798 1.76722 13.4562 2.01904 13.2932L5.68129 10.9128L4.11979 8.04998C3.97579 7.78549 3.90024 7.48918 3.90001 7.18804V4.2C3.90001 3.40435 4.21608 2.64129 4.77869 2.07868C5.34129 1.51607 6.10436 1.2 6.90001 1.2C7.69565 1.2 8.45872 1.51607 9.02133 2.07868C9.58393 2.64129 9.90001 3.40435 9.90001 4.2V7.18804C9.89977 7.48918 9.82422 7.78549 9.68022 8.04998L8.11876 10.9128L11.7811 13.2932C12.0329 13.4563 12.2398 13.6798 12.3829 13.9435C12.5259 14.2071 12.6006 14.5025 12.6 14.8025V16.8Z" fill="#ADADAD"/>
</svg>
