<svg width="25" height="25" viewBox="0 0 25 25" fill="none" xmlns="http://www.w3.org/2000/svg">
<path d="M7.8008 4.24908V5.84794H22.9899V9.01292L21.2162 14.6416H7.29776L5.29919 0.25H0.605957V1.84885H3.90699L5.90556 16.2405H22.3887L24.5888 9.25884V4.24908H7.8008Z" fill="black"/>
<path d="M8.64937 17.8545C7.80158 17.8555 6.98879 18.1927 6.38931 18.7921C5.78984 19.3916 5.45263 20.2044 5.45166 21.0522C5.45166 21.9003 5.78856 22.7136 6.38825 23.3133C6.98793 23.913 7.80128 24.2499 8.64937 24.2499C9.49745 24.2499 10.3108 23.913 10.9105 23.3133C11.5102 22.7136 11.8471 21.9003 11.8471 21.0522C11.8461 20.2044 11.5089 19.3916 10.9094 18.7921C10.31 18.1927 9.49716 17.8554 8.64937 17.8545ZM8.64937 22.6511C8.33314 22.6511 8.02402 22.5573 7.76109 22.3816C7.49816 22.2059 7.29323 21.9562 7.17222 21.6641C7.05121 21.3719 7.01954 21.0504 7.08124 20.7403C7.14293 20.4301 7.2952 20.1452 7.51881 19.9216C7.74241 19.698 8.0273 19.5458 8.33745 19.4841C8.64759 19.4224 8.96907 19.454 9.26122 19.5751C9.55338 19.6961 9.80308 19.901 9.97877 20.1639C10.1545 20.4269 10.2482 20.736 10.2482 21.0522C10.2477 21.4761 10.0791 21.8825 9.77937 22.1822C9.47964 22.4819 9.07326 22.6506 8.64937 22.6511Z" fill="black"/>
<path d="M19.8413 17.8545C18.9935 17.8555 18.1807 18.1927 17.5812 18.7921C16.9817 19.3916 16.6445 20.2044 16.6436 21.0522C16.6436 21.9003 16.9805 22.7136 17.5801 23.3133C18.1798 23.913 18.9932 24.2499 19.8413 24.2499C20.6893 24.2499 21.5027 23.913 22.1024 23.3133C22.7021 22.7136 23.039 21.9003 23.039 21.0522C23.038 20.2044 22.7008 19.3916 22.1013 18.7921C21.5019 18.1927 20.6891 17.8554 19.8413 17.8545ZM19.8413 22.6511C19.525 22.6511 19.2159 22.5573 18.953 22.3816C18.6901 22.2059 18.4851 21.9562 18.3641 21.6641C18.2431 21.3719 18.2114 21.0504 18.2731 20.7403C18.3348 20.4301 18.4871 20.1452 18.7107 19.9216C18.9343 19.698 19.2192 19.5458 19.5293 19.4841C19.8395 19.4224 20.161 19.454 20.4531 19.5751C20.7453 19.6961 20.995 19.901 21.1707 20.1639C21.3463 20.4269 21.4401 20.736 21.4401 21.0522C21.4396 21.4761 21.271 21.8825 20.9713 22.1822C20.6715 22.4819 20.2652 22.6506 19.8413 22.6511Z" fill="black"/>
</svg>
