<svg width="14" height="18" viewBox="0 0 14 18" fill="none" xmlns="http://www.w3.org/2000/svg">
<path d="M6.69009 4.23175C6.20314 4.23175 5.72712 4.37615 5.32224 4.64668C4.91736 4.91722 4.60179 5.30174 4.41544 5.75162C4.22909 6.2015 4.18034 6.69654 4.27534 7.17413C4.37034 7.65173 4.60482 8.09042 4.94915 8.43475C5.29347 8.77907 5.73217 9.01356 6.20976 9.10856C6.68736 9.20356 7.18239 9.1548 7.63228 8.96846C8.08216 8.78211 8.46668 8.46654 8.73722 8.06166C9.00775 7.65677 9.15215 7.18076 9.15215 6.69381C9.1514 6.04106 8.89177 5.41526 8.43021 4.95369C7.96864 4.49213 7.34284 4.23249 6.69009 4.23175ZM6.69009 7.92484C6.44661 7.92484 6.20861 7.85264 6.00616 7.71737C5.80372 7.58211 5.64594 7.38985 5.55276 7.1649C5.45959 6.93996 5.43521 6.69244 5.48271 6.45365C5.53021 6.21485 5.64746 5.9955 5.81962 5.82334C5.99178 5.65118 6.21113 5.53393 6.44993 5.48643C6.68872 5.43893 6.93624 5.46331 7.16118 5.55649C7.38612 5.64966 7.57838 5.80744 7.71365 6.00989C7.84892 6.21233 7.92112 6.45034 7.92112 6.69381C7.92074 7.02018 7.79092 7.33308 7.56014 7.56386C7.32936 7.79464 7.01646 7.92446 6.69009 7.92484Z" fill="#3BB77E"/>
<path d="M11.4212 1.95907C10.2514 0.789612 8.68995 0.094904 7.0381 0.00902943C5.38626 -0.0768451 3.76115 0.452202 2.47643 1.49406C1.19171 2.53592 0.338456 4.01674 0.0813439 5.65071C-0.175769 7.28469 0.181488 8.95598 1.08416 10.342L5.73542 17.4825C5.83892 17.6414 5.98045 17.7719 6.14716 17.8623C6.31388 17.9527 6.50051 18 6.69014 18C6.87977 18 7.0664 17.9527 7.23311 17.8623C7.39983 17.7719 7.54135 17.6414 7.64486 17.4825L12.2963 10.342C13.1338 9.05627 13.504 7.52167 13.3447 5.99544C13.1854 4.46922 12.5063 3.04414 11.4212 1.95907ZM11.2648 9.67009L6.69016 16.6927L2.11546 9.67009C0.715163 7.52044 1.0155 4.64368 2.82957 2.82953C3.33655 2.32254 3.93842 1.92037 4.60082 1.64599C5.26322 1.37161 5.97318 1.23039 6.69016 1.23039C7.40714 1.23039 8.1171 1.37161 8.7795 1.64599C9.4419 1.92037 10.0438 2.32254 10.5507 2.82953C12.3648 4.64368 12.6651 7.52044 11.2648 9.67009Z" fill="#3BB77E"/>
</svg>
