<svg width="45" height="44" viewBox="0 0 45 44" fill="none" xmlns="http://www.w3.org/2000/svg">
<path d="M22.7388 0C16.7581 0 16.0128 0.0288786 13.6723 0.127891C11.3221 0.243405 9.73239 0.607826 8.32972 1.15239C6.88304 1.71897 5.65088 2.47118 4.43386 3.69509C3.20858 4.91211 2.44948 6.14427 1.89116 7.59095C1.3466 8.99362 0.982175 10.5833 0.866661 12.9335C0.760772 15.2754 0.73877 16.0194 0.73877 22C0.73877 27.9806 0.767648 28.726 0.866661 31.0665C0.982175 33.4098 1.3466 35.0064 1.89116 36.4091C2.45773 37.8557 3.20995 39.0879 4.43386 40.3049C5.65088 41.5302 6.88304 42.2893 8.32972 42.8476C9.73239 43.3853 11.329 43.7566 13.6723 43.8721C16.0142 43.978 16.7581 44 22.7388 44C28.7194 44 29.4647 43.9711 31.8053 43.8721C34.1486 43.7566 35.7451 43.3839 37.1478 42.8476C38.5945 42.281 39.8267 41.5288 41.0437 40.3049C42.269 39.0879 43.0281 37.8626 43.5864 36.4091C44.1241 35.0064 44.4954 33.4098 44.6109 31.0665C44.7168 28.7246 44.7388 27.9806 44.7388 22C44.7388 16.0194 44.7099 15.274 44.6109 12.9335C44.4954 10.5902 44.1227 8.98537 43.5864 7.59095C43.0198 6.14427 42.2676 4.91211 41.0437 3.69509C39.8267 2.46981 38.6014 1.71071 37.1478 1.15239C35.7451 0.607826 34.1486 0.243405 31.8053 0.127891C29.4634 0.0220028 28.7194 0 22.7388 0V0ZM22.7388 3.9605C28.6121 3.9605 29.3135 3.98937 31.6348 4.08839C33.7759 4.18877 34.942 4.54632 35.7163 4.84886C36.749 5.24903 37.471 5.72209 38.2521 6.49494C39.0181 7.26091 39.4911 7.99112 39.8913 9.02388C40.1938 9.7981 40.5514 10.9642 40.6518 13.1054C40.7508 15.4267 40.7797 16.1294 40.7797 22.0014C40.7797 27.8734 40.7508 28.5761 40.6435 30.8974C40.528 33.0385 40.1705 34.2047 39.8693 34.9789C39.4526 36.0116 38.9878 36.7336 38.2205 37.5147C37.4462 38.2807 36.7091 38.7537 35.6846 39.1539C34.92 39.4564 33.7374 39.814 31.588 39.9144C29.2543 40.0134 28.5668 40.0423 22.6783 40.0423C16.7898 40.0423 16.1036 40.0134 13.7671 39.9061C11.626 39.7906 10.4447 39.4331 9.67051 39.1319C8.62538 38.7152 7.90892 38.2504 7.14157 37.4831C6.36735 36.7088 5.87504 35.9717 5.49549 34.9472C5.18745 34.1827 4.83541 33 4.72127 30.8506C4.64288 28.5444 4.60575 27.8294 4.60575 21.9684C4.60575 16.1101 4.64288 15.3937 4.72127 13.0586C4.83541 10.9092 5.18745 9.72934 5.49549 8.962C5.87504 7.91549 6.36872 7.2004 7.14157 6.42618C7.90754 5.66021 8.62538 5.16515 9.67051 4.77735C10.4447 4.47618 11.5971 4.11864 13.7465 4.01138C16.0802 3.92749 16.7678 3.89724 22.648 3.89724L22.7388 3.9605ZM22.7388 10.7085C16.4941 10.7085 11.4445 15.765 11.4445 22.0028C11.4445 28.2474 16.501 33.297 22.7388 33.297C28.9834 33.297 34.0331 28.2405 34.0331 22.0028C34.0331 15.7581 28.9766 10.7085 22.7388 10.7085ZM22.7388 29.3365C18.6848 29.3365 15.405 26.0568 15.405 22.0028C15.405 17.9487 18.6848 14.669 22.7388 14.669C26.7928 14.669 30.0726 17.9487 30.0726 22.0028C30.0726 26.0568 26.7928 29.3365 22.7388 29.3365ZM37.1286 10.2574C37.1286 11.7192 35.939 12.8991 34.4841 12.8991C33.0223 12.8991 31.8424 11.7178 31.8424 10.2574C31.8424 8.80385 33.0306 7.6212 34.4841 7.6212C35.9377 7.6212 37.1286 8.80385 37.1286 10.2574Z" fill="#3BB77E"/>
</svg>
