<svg width="18" height="19" viewBox="0 0 18 19" fill="none" xmlns="http://www.w3.org/2000/svg">
<path d="M17.5848 7.70141L9.60581 0.360747C9.34643 0.122107 9.00484 -0.00704154 8.65246 0.000296411C8.30007 0.00763436 7.96416 0.150891 7.71493 0.400122L0.376594 7.7385L0 8.11505V18.9333H7.07143V12.1833H10.9286V18.9333H18V8.08343L17.5848 7.70141ZM8.6801 1.28574C8.69143 1.28574 8.68444 1.28819 8.67958 1.29297C8.67455 1.28819 8.66877 1.28574 8.6801 1.28574ZM16.7143 17.6476H12.2143V12.1833C12.2143 11.8423 12.0788 11.5153 11.8377 11.2742C11.5966 11.0331 11.2696 10.8976 10.9286 10.8976H7.07143C6.73044 10.8976 6.40341 11.0331 6.16229 11.2742C5.92117 11.5153 5.78571 11.8423 5.78571 12.1833V17.6476H1.28571V8.64762L8.6801 1.30924C8.68062 1.30876 8.68066 1.30832 8.68106 1.30784L16.7143 8.64762V17.6476Z" fill="#3BB77E"/>
</svg>
