<svg width="18" height="20" viewBox="0 0 18 20" fill="none" xmlns="http://www.w3.org/2000/svg">
<path d="M16.6683 6.48871C13.6669 1.16545 4.8647 0 4.8647 0C4.8647 0 8.92673 4.43552 3.73589 7.94279C0.453608 10.1567 -0.844262 13.0333 0.561603 16.1748C1.63834 18.5816 3.91653 19.5619 6.37149 19.927C5.19833 17.7131 6.106 15.0094 6.20692 14.7201C8.50118 18.1914 12.8364 14.7201 10.6585 10.9474C13.5114 11.5658 13.9369 16.5162 11.7475 19.6056C14.9815 18.5893 17.135 16.0341 17.7258 13.7559C18.3487 11.3736 17.8743 8.61712 16.669 6.48807L16.6683 6.48871Z" fill="black"/>
</svg>
