<svg width="21" height="21" viewBox="0 0 21 21" fill="none" xmlns="http://www.w3.org/2000/svg">
<path fill-rule="evenodd" clip-rule="evenodd" d="M16.4706 4.07733C16.796 4.40277 16.796 4.9304 16.4706 5.25584L4.80394 16.9225C4.4785 17.2479 3.95086 17.2479 3.62543 16.9225C3.29999 16.5971 3.29999 16.0694 3.62543 15.744L15.2921 4.07733C15.6175 3.75189 16.1452 3.75189 16.4706 4.07733Z" fill="#253D4E"/>
<path fill-rule="evenodd" clip-rule="evenodd" d="M5.46452 4.66667C4.77416 4.66667 4.21452 5.22631 4.21452 5.91667C4.21452 6.60702 4.77416 7.16667 5.46452 7.16667C6.15487 7.16667 6.71452 6.60702 6.71452 5.91667C6.71452 5.22631 6.15487 4.66667 5.46452 4.66667ZM2.54785 5.91667C2.54785 4.30584 3.85369 3 5.46452 3C7.07535 3 8.38118 4.30584 8.38118 5.91667C8.38118 7.5275 7.07535 8.83333 5.46452 8.83333C3.85369 8.83333 2.54785 7.5275 2.54785 5.91667Z" fill="#253D4E"/>
<path fill-rule="evenodd" clip-rule="evenodd" d="M14.631 13.8334C13.9407 13.8334 13.381 14.3931 13.381 15.0834C13.381 15.7738 13.9407 16.3334 14.631 16.3334C15.3214 16.3334 15.881 15.7738 15.881 15.0834C15.881 14.3931 15.3214 13.8334 14.631 13.8334ZM11.7144 15.0834C11.7144 13.4726 13.0202 12.1667 14.631 12.1667C16.2419 12.1667 17.5477 13.4726 17.5477 15.0834C17.5477 16.6942 16.2419 18.0001 14.631 18.0001C13.0202 18.0001 11.7144 16.6942 11.7144 15.0834Z" fill="#253D4E"/>
</svg>
