<svg width="12" height="13" viewBox="0 0 12 13" fill="none" xmlns="http://www.w3.org/2000/svg">
<g clip-path="url(#clip0_92_1421)">
<path fill-rule="evenodd" clip-rule="evenodd" d="M3.5 11.1667C3.5 10.6144 3.94772 10.1667 4.5 10.1667C5.05228 10.1667 5.5 10.6144 5.5 11.1667C5.5 11.7189 5.05228 12.1667 4.5 12.1667C3.94772 12.1667 3.5 11.7189 3.5 11.1667Z" fill="white"/>
<path fill-rule="evenodd" clip-rule="evenodd" d="M9 11.1667C9 10.6144 9.44772 10.1667 10 10.1667C10.5523 10.1667 11 10.6144 11 11.1667C11 11.7189 10.5523 12.1667 10 12.1667C9.44772 12.1667 9 11.7189 9 11.1667Z" fill="white"/>
<path fill-rule="evenodd" clip-rule="evenodd" d="M0 1.16666C0 0.890514 0.223858 0.666656 0.5 0.666656H2.5C2.73831 0.666656 2.94351 0.834849 2.99028 1.06853L3.41022 3.16666H11.5C11.649 3.16666 11.7903 3.23312 11.8852 3.34793C11.9802 3.46275 12.0191 3.61395 11.9911 3.76032L11.1904 7.95907C11.1219 8.30436 10.934 8.61453 10.6598 8.83529C10.3869 9.05494 10.0458 9.17214 9.69568 9.16666H4.84432C4.49419 9.17214 4.1531 9.05494 3.88024 8.83529C3.60612 8.61463 3.41832 8.30462 3.34966 7.95949C3.34964 7.95935 3.34969 7.95963 3.34966 7.95949L2.51439 3.78626C2.51101 3.77245 2.50819 3.75842 2.50598 3.74419L2.09016 1.66666H0.5C0.223858 1.66666 0 1.4428 0 1.16666ZM3.61036 4.16666L4.33042 7.76425C4.35328 7.87935 4.4159 7.98274 4.50731 8.05632C4.59872 8.12991 4.71309 8.169 4.83042 8.16675L4.84 8.16666H9.7L9.70958 8.16675C9.82691 8.169 9.94129 8.12991 10.0327 8.05632C10.1237 7.98308 10.1861 7.88031 10.2093 7.76585L10.8956 4.16666H3.61036Z" fill="white"/>
</g>
<defs>
<clipPath id="clip0_92_1421">
<rect width="12" height="12" fill="white" transform="translate(0 0.666656)"/>
</clipPath>
</defs>
</svg>
