<svg width="37" height="47" viewBox="0 0 37 47" fill="none" xmlns="http://www.w3.org/2000/svg">
<path d="M3.81019 23.985C5.88752 34.5255 7.25214 39.7219 8.27954 42.2528C8.7865 43.5017 9.24925 44.2042 9.76214 44.5406C10.2959 44.8906 10.8027 44.7875 11.1207 44.7227C11.1411 44.7186 11.1608 44.7146 11.1796 44.7109C11.1954 44.7077 11.2118 44.7046 11.2286 44.7013C11.5539 44.6386 12.067 44.5395 12.4359 44.002C12.7871 43.4903 12.9577 42.6567 12.9606 41.2957C12.9664 38.5411 12.2724 33.1929 10.1949 22.6519C8.06888 11.8643 6.64189 6.45123 5.56488 3.76444C5.03208 2.43528 4.552 1.68347 4.04152 1.30518C3.46727 0.879633 2.93153 0.980424 2.57501 1.05069C2.40651 1.0839 2.17394 1.13137 1.94738 1.24932C1.7062 1.37488 1.49223 1.5679 1.32347 1.86032C1.00712 2.40845 0.86047 3.29103 0.883049 4.72846C0.928709 7.63517 1.68418 13.1975 3.81019 23.985Z" fill="#FFB531" stroke="black"/>
<path d="M30.0908 1.90023L29.5892 1.83048L29.5259 2.33291L28.5204 10.3065L24.9085 15.1412L24.8316 15.2442L24.8139 15.3716L24.2705 19.2786L22.8748 29.3152L22.505 31.9745L22.4361 32.4698L22.9313 32.5386L27.1969 33.1318L31.4625 33.725L31.9577 33.7939L32.0266 33.2987L32.3882 30.6982L33.814 20.4458L34.3355 16.6957L34.352 16.5768L34.3128 16.4633L32.403 10.9449L33.3622 2.84976L33.4198 2.36319L32.9345 2.2957L31.5127 2.09797L30.0908 1.90023Z" fill="#024014" stroke="black"/>
<path d="M20.831 9.9019C20.7684 9.58884 20.6878 9.32939 20.591 9.11086L19.0061 3.94548L19.0307 3.64992L18.6579 3.52566C18.395 3.438 18.1521 3.25469 17.9117 2.98654C17.6695 2.71645 17.4554 2.39 17.2356 2.04425C17.2168 2.01465 17.1978 1.98471 17.1787 1.95454C16.986 1.6505 16.7782 1.32269 16.5579 1.0699C16.3202 0.797245 15.9741 0.5 15.4998 0.5C15.0226 0.5 14.393 0.511696 13.7709 0.739671C13.1283 0.975127 12.5208 1.42984 12.0624 2.2578L11.9736 2.41823L11.9772 2.43641L10.3107 5.9805C10.1406 6.23571 9.99396 6.52681 9.90122 6.86932C9.77194 7.34677 9.92929 7.82446 10.0931 8.21098C10.1728 8.39924 10.2677 8.59478 10.3599 8.78484C10.3669 8.79939 10.374 8.81391 10.381 8.82839C10.4819 9.03664 10.5812 9.24341 10.6709 9.45742C11.0218 10.2947 11.2059 11.1846 10.5709 12.2427L10.4081 12.5141L10.5356 12.7053L11.9701 18.4418L11.1453 20.0911L11.0825 20.1121L11.0152 20.3768C10.8667 20.9614 10.6365 21.4078 10.3812 21.9029C10.3035 22.0534 10.2236 22.2085 10.1429 22.3733C9.80083 23.0719 9.5 23.8597 9.5 25C9.5 31.0977 10.0478 36.1475 11.0253 39.6894C11.5132 41.4572 12.1169 42.8826 12.8377 43.877C13.5586 44.8718 14.4485 45.5 15.4998 45.5C16.5931 45.5 17.5128 44.6939 18.2555 43.5421C19.0127 42.3679 19.6756 40.7019 20.2249 38.6879C21.3254 34.6528 21.9998 29.1064 21.9998 23C21.9998 22.6628 21.9978 22.3274 21.9937 21.9939C21.9904 21.725 21.8819 21.5058 21.7173 21.3444C21.5694 21.1994 21.3901 21.1143 21.2522 21.0589C21.1556 21.0202 21.0421 20.9826 20.9496 20.952C20.915 20.9406 20.8834 20.9301 20.8567 20.9209C20.748 20.8835 20.6807 20.855 20.638 20.83C20.6417 20.8144 20.6478 20.7935 20.658 20.7665C20.7467 20.5297 21.0374 20.0951 21.7603 19.3476L22.0907 19.006L21.7663 18.6587C21.6452 18.5291 21.4888 18.4417 21.3791 18.3842C21.3216 18.3541 21.2608 18.3243 21.2048 18.2969L21.1964 18.2928C21.136 18.2632 21.0788 18.2351 21.0217 18.2053C20.7881 18.0832 20.6189 17.9625 20.5168 17.7984C20.339 17.5127 20.193 16.7631 21.4579 14.7677L21.5524 14.6186L21.5324 14.4432C21.4743 13.9356 21.2813 13.5646 21.0746 13.2604C20.9963 13.1452 20.9114 13.0331 20.8362 12.934C20.8172 12.9088 20.7987 12.8845 20.7812 12.8612C20.6896 12.7393 20.613 12.6325 20.5491 12.5222C20.4295 12.3159 20.3485 12.0883 20.3576 11.7567C20.3672 11.4092 20.477 10.9206 20.7972 10.204L20.8624 10.0584L20.831 9.9019ZM20.6326 20.8666C20.6326 20.8666 20.6325 20.8661 20.6326 20.865C20.6326 20.866 20.6326 20.8665 20.6326 20.8666Z" fill="#598C44" stroke="black"/>
<line x1="15.4995" y1="3.97828" x2="16.4995" y2="26.9783" stroke="black"/>
<line x1="13.4472" y1="6.77639" x2="15.4472" y2="10.7764" stroke="black"/>
<line x1="15.584" y1="10.7226" x2="17.584" y2="7.72265" stroke="black"/>
<line x1="16.6464" y1="16.3536" x2="13.6464" y2="13.3536" stroke="black"/>
<line x1="15.6464" y1="16.6464" x2="18.6464" y2="13.6464" stroke="black"/>
<line x1="15.6464" y1="20.3536" x2="13.6464" y2="18.3536" stroke="black"/>
<line x1="15.6464" y1="20.6464" x2="18.6464" y2="17.6464" stroke="black"/>
<line x1="2.28631" y1="7.10322" x2="5.07368" y2="5.6097" stroke="black"/>
<line x1="2.96356" y1="11.0456" x2="5.75093" y2="9.55209" stroke="black"/>
<line x1="4.31854" y1="18.9301" x2="7.10591" y2="17.4366" stroke="black"/>
<line x1="3.6413" y1="14.9877" x2="6.42866" y2="13.4942" stroke="black"/>
<path d="M5.95803 22.4689L6.18164 22.5807L6.40525 22.4689L8.18164 21.5807L9.95803 22.4689L10.1816 22.5807L10.4052 22.4689L12.1816 21.5807L13.958 22.4689L14.1816 22.5807L14.4052 22.4689L16.1816 21.5807L17.958 22.4689L18.1816 22.5807L18.4052 22.4689L20.1816 21.5807L21.958 22.4689L22.1816 22.5807L22.4052 22.4689L24.1816 21.5807L25.958 22.4689L26.0636 22.5217H26.1816H27.6816V45.5217H2.68164V22.3307L4.18164 21.5807L5.95803 22.4689Z" fill="#FFB531" stroke="black"/>
<path d="M31.458 22.4689L31.6816 22.5807L31.9052 22.4689L33.7044 21.5694L35.6816 22.3602V45.5217H27.6816V22.3602L29.6589 21.5694L31.458 22.4689Z" fill="#F98500" stroke="black"/>
<line x1="27.8281" y1="45.6682" x2="31.8281" y2="41.6682" stroke="black"/>
<line x1="35.5178" y1="45.6173" x2="31.8045" y2="41.35" stroke="black"/>
<line x1="31.6816" y1="42.0217" x2="31.6816" y2="23.0217" stroke="black"/>
</svg>
